
<svg version="1.0" xmlns="http://www.w3.org/2000/svg"  width="300.000000pt" height="123.000000pt" viewBox="0 0 300.000000 123.000000"  preserveAspectRatio="xMidYMid meet">  <g transform="translate(0.000000,123.000000) scale(0.100000,-0.100000)" fill="#000000" stroke="none"> <path d="M1763 1009 c-33 -10 -38 -18 -46 -86 l-4 -33 101 2 101 1 -75 6 c-87 8 -100 14 -100 45 0 37 20 46 81 39 46 -5 59 -12 91 -46 l38 -40 107 -8 c60 -5 118 -11 131 -13 33 -5 27 8 -24 53 -69 61 -138 84 -264 87 -58 2 -120 -1 -137 -7z m222 -23 c35 -3 105 -26 105 -35 0 -5 11 -12 25 -15 24 -6 33 -20 18 -29 -5 -2 -44 0 -88 4 -71 8 -83 12 -107 39 -16 17 -28 35 -28 41 0 7 10 9 28 4 15 -4 36 -8 47 -9z"/> <path d="M1645 995 c-5 -2 -199 -15 -430 -30 -231 -14 -447 -29 -480 -33 -33 -4 156 -6 421 -3 417 3 482 2 487 -11 4 -13 -26 -16 -211 -21 -120 -4 -293 -8 -387 -9 -186 -2 -178 -3 195 -18 324 -13 420 -20 420 -31 0 -5 -144 -10 -322 -10 -178 -1 -316 -3 -308 -5 8 -1 128 -8 265 -14 352 -15 373 -17 377 -44 2 -11 8 32 12 96 9 135 5 148 -39 133z m17 -47 c-7 -7 -12 -8 -12 -2 0 14 12 26 19 19 2 -3 -1 -11 -7 -17z"/> <path d="M1743 870 c-21 -8 -23 -16 -23 -74 l0 -64 39 -7 c50 -8 72 -25 88 -66 l13 -34 -4 38 c-6 51 -20 65 -73 79 l-44 11 3 51 3 51 103 0 103 0 22 -55 c24 -59 34 -66 132 -96 91 -29 105 -45 115 -138 5 -43 14 -84 21 -92 15 -18 158 -19 183 -1 14 10 16 26 14 92 l-3 79 -52 26 c-48 23 -70 43 -40 38 8 -2 12 10 12 37 0 33 -3 40 -20 40 -16 0 -20 -6 -18 -30 3 -33 -2 -26 -28 43 -6 19 -22 40 -33 47 -40 25 -462 46 -513 25z m424 -26 c68 -6 74 -8 92 -37 11 -18 22 -43 26 -57 l6 -25 -103 8 c-164 13 -168 14 -183 50 -33 82 -34 80 31 73 33 -3 92 -8 131 -12z m153 -134 c0 -5 -6 -10 -12 -10 -7 -1 -4 -6 7 -13 36 -21 25 -32 -30 -31 -43 1 -61 7 -85 28 l-32 26 39 0 c22 0 44 -5 51 -12 8 -8 12 -9 12 -1 0 10 15 18 43 22 4 0 7 -3 7 -9z m102 -137 c6 -87 1 -93 -87 -93 -86 0 -90 3 -97 93 l-5 57 93 0 92 0 4 -57z"/> <path d="M567 733 c-4 -3 -7 -11 -7 -17 0 -6 5 -5 12 2 7 7 20 12 31 12 16 0 18 -5 12 -32 -15 -73 -26 -108 -35 -108 -6 0 -10 -4 -10 -8 0 -4 17 -9 38 -10 27 -1 33 1 21 8 -14 8 -14 15 0 80 12 55 20 70 34 70 10 0 20 -7 23 -15 9 -22 23 -18 17 5 -5 17 -14 20 -67 20 -35 0 -66 -3 -69 -7z"/> <path d="M1031 732 c-16 -2 -20 -6 -12 -11 9 -6 9 -23 -3 -75 -9 -37 -16 -71 -16 -77 0 -13 27 -11 36 3 4 7 3 8 -4 4 -16 -9 -15 -4 8 84 10 41 18 75 17 75 -1 0 -13 -1 -26 -3z"/> <path d="M1147 713 c-4 -3 -7 -13 -7 -21 0 -13 3 -13 18 1 22 20 42 22 42 5 -1 -35 -31 -132 -42 -139 -8 -6 0 -9 22 -9 19 0 30 4 23 8 -9 5 -7 24 5 75 14 58 19 67 38 67 12 0 24 -6 27 -12 2 -7 7 -10 11 -7 4 4 0 14 -9 23 -17 16 -114 23 -128 9z"/> <path d="M818 691 c-9 -11 -13 -21 -8 -23 5 -2 5 -22 -2 -46 -13 -51 -2 -71 29 -53 17 10 17 10 0 11 -15 0 -17 6 -11 38 9 48 12 52 29 45 8 -3 15 0 15 6 0 6 -7 11 -15 11 -9 0 -12 6 -9 15 9 21 -8 19 -28 -4z"/> <path d="M1611 701 c-9 -6 -10 -10 -1 -13 9 -3 8 -20 -4 -71 -19 -80 -19 -87 -6 -87 6 0 10 9 10 19 0 30 16 33 28 6 12 -25 36 -33 47 -15 3 6 -1 10 -9 10 -19 0 -40 36 -32 56 3 8 15 14 26 14 11 0 20 5 20 10 0 17 -26 11 -45 -10 -22 -25 -28 -21 -17 11 27 72 22 94 -17 70z"/> <path d="M706 669 c-22 -17 -26 -28 -24 -58 3 -31 7 -36 30 -39 31 -4 58 28 58 70 0 41 -31 53 -64 27z m44 -27 c0 -34 -23 -68 -38 -58 -25 15 -5 86 23 86 10 0 15 -10 15 -28z"/> <path d="M900 651 c-23 -22 -30 -38 -28 -58 4 -35 22 -39 48 -13 22 22 22 22 15 1 -4 -15 -2 -21 9 -21 8 0 18 5 21 10 3 6 2 10 -4 10 -6 0 -5 17 3 45 8 25 10 45 6 45 -5 0 -15 3 -24 6 -10 4 -27 -6 -46 -25z m50 -5 c0 -16 -38 -66 -51 -66 -14 0 -11 33 7 58 17 24 44 30 44 8z"/> <path d="M1953 658 c-24 -27 -47 -88 -32 -88 5 0 9 4 9 9 0 16 68 41 112 41 64 -1 123 -31 147 -77 11 -21 20 -31 21 -22 0 25 -21 82 -39 103 -47 55 -180 75 -218 34z m102 -7 c-7 -12 -65 -11 -65 1 0 4 16 8 36 8 19 0 33 -4 29 -9z"/> <path d="M1278 653 c-10 -2 -18 -9 -18 -14 0 -6 5 -7 11 -3 12 7 6 -45 -8 -83 -4 -10 -2 -14 7 -11 19 6 49 121 31 117 -3 -1 -14 -3 -23 -6z"/> <path d="M1322 648 c-18 -18 -15 -27 8 -21 11 3 20 12 20 19 0 17 -12 18 -28 2z"/> <path d="M1375 645 c-11 -9 -14 -13 -6 -9 10 5 13 3 8 -9 -3 -8 -9 -32 -13 -51 -5 -30 -3 -36 12 -36 9 0 26 8 37 18 19 16 20 16 14 0 -7 -20 9 -24 33 -8 12 8 12 10 1 10 -13 0 -12 31 4 73 5 12 2 17 -9 17 -9 0 -16 -8 -16 -19 0 -21 -45 -80 -54 -70 -3 3 -1 22 5 43 13 48 9 61 -16 41z"/> <path d="M1510 630 c-22 -22 -27 -69 -8 -88 16 -16 30 -15 54 3 18 15 18 15 -8 9 -32 -7 -44 11 -34 50 7 28 36 42 47 24 4 -7 11 -9 14 -6 11 11 -5 28 -26 28 -10 0 -28 -9 -39 -20z"/> <path d="M2040 582 c0 -5 24 -34 53 -65 40 -43 60 -57 81 -57 24 0 26 3 21 23 -9 28 -43 65 -75 82 -35 17 -80 27 -80 17z m109 -72 l16 -24 -28 18 c-15 10 -27 23 -27 28 0 16 22 4 39 -22z"/> <path d="M2460 526 c0 -51 4 -54 37 -28 23 18 19 30 -19 61 -17 12 -18 10 -18 -33z"/> <path d="M1937 522 c-26 -29 -20 -35 12 -11 40 29 66 18 96 -42 42 -82 47 -83 263 -75 202 7 212 10 212 64 0 18 -4 23 -16 18 -9 -3 -18 -6 -20 -6 -2 0 -4 -9 -4 -19 0 -28 -21 -32 -200 -33 -179 0 -184 1 -221 73 -10 20 -25 39 -34 43 -31 12 -72 6 -88 -12z"/> <path d="M1124 460 c-31 -12 -54 -49 -54 -85 0 -40 10 -54 49 -65 39 -11 71 2 71 28 -1 16 -1 16 -11 0 -14 -26 -65 -23 -79 3 -24 44 13 109 61 109 16 0 32 -7 38 -17 9 -16 10 -16 11 3 0 32 -40 43 -86 24z"/> <path d="M1608 442 c10 -7 10 -21 -2 -72 -8 -35 -21 -67 -28 -72 -8 -5 11 -7 47 -6 50 3 60 6 63 22 4 18 3 19 -13 3 -23 -24 -68 -23 -61 1 3 9 10 37 16 62 6 25 19 51 28 58 13 10 10 12 -24 12 -24 0 -34 -3 -26 -8z"/> <path d="M1867 420 c5 -27 3 -30 -20 -30 -31 0 -57 -33 -57 -72 0 -36 16 -44 42 -21 21 18 21 17 15 -1 -6 -14 -4 -17 9 -12 8 3 18 6 20 6 3 0 2 5 -1 10 -6 9 10 105 22 137 3 8 -3 13 -16 13 -17 0 -20 -4 -14 -30z m-7 -50 c0 -18 -30 -70 -40 -70 -13 0 -13 36 0 61 11 20 40 26 40 9z"/> <path d="M1740 404 c0 -8 -3 -13 -7 -11 -5 3 -9 -19 -10 -49 -2 -50 0 -54 20 -54 16 0 18 3 9 9 -19 12 -5 81 17 82 10 0 11 2 4 6 -7 2 -13 11 -13 19 0 8 -4 14 -10 14 -5 0 -10 -7 -10 -16z"/> <path d="M1247 398 c-33 -26 -44 -98 -14 -98 6 0 19 8 29 17 18 16 18 16 12 0 -7 -19 3 -22 26 -7 9 6 10 10 3 10 -8 0 -9 9 -2 32 5 18 9 39 9 45 0 17 -41 17 -63 1z m43 -12 c0 -8 -11 -28 -25 -43 -24 -28 -24 -28 -25 -5 0 13 5 32 10 43 12 22 40 26 40 5z"/> <path d="M1353 404 c-7 -3 -10 -11 -7 -19 3 -7 1 -29 -4 -49 -8 -27 -7 -36 2 -36 6 0 16 15 21 33 6 18 20 36 33 42 12 5 22 15 22 22 0 18 -10 16 -33 -4 -19 -17 -20 -17 -14 0 6 17 2 20 -20 11z"/> <path d="M1462 403 c-19 -8 -44 -62 -37 -83 8 -24 32 -33 56 -20 25 14 24 23 -2 15 -13 -5 -25 -2 -30 6 -10 17 -2 29 20 29 28 0 46 26 31 45 -13 16 -17 17 -38 8z m28 -23 c0 -12 -28 -25 -36 -17 -9 9 6 27 22 27 8 0 14 -5 14 -10z"/> <path d="M1900 295 c0 -8 7 -15 15 -15 8 0 15 7 15 15 0 8 -7 15 -15 15 -8 0 -15 -7 -15 -15z"/> </g> </svg>
